<svg id="visual" viewBox="0 0 960 540" width="960" height="540" xmlns="http://www.w3.org/2000/svg" xmlns:xlink="http://www.w3.org/1999/xlink" version="1.1"><path d="M0 212L22.8 213.5C45.7 215 91.3 218 137 217.7C182.7 217.3 228.3 213.7 274 210.3C319.7 207 365.3 204 411.2 201.3C457 198.7 503 196.3 548.8 190.8C594.7 185.3 640.3 176.7 686 178C731.7 179.3 777.3 190.7 823 186.5C868.7 182.3 914.3 162.7 937.2 152.8L960 143L960 0L937.2 0C914.3 0 868.7 0 823 0C777.3 0 731.7 0 686 0C640.3 0 594.7 0 548.8 0C503 0 457 0 411.2 0C365.3 0 319.7 0 274 0C228.3 0 182.7 0 137 0C91.3 0 45.7 0 22.8 0L0 0Z" fill="#9f3a31"></path><path d="M0 132L22.8 131.8C45.7 131.7 91.3 131.3 137 132.7C182.7 134 228.3 137 274 141.7C319.7 146.3 365.3 152.7 411.2 152C457 151.3 503 143.7 548.8 144.7C594.7 145.7 640.3 155.3 686 155.7C731.7 156 777.3 147 823 139.7C868.7 132.3 914.3 126.7 937.2 123.8L960 121L960 0L937.2 0C914.3 0 868.7 0 823 0C777.3 0 731.7 0 686 0C640.3 0 594.7 0 548.8 0C503 0 457 0 411.2 0C365.3 0 319.7 0 274 0C228.3 0 182.7 0 137 0C91.3 0 45.7 0 22.8 0L0 0Z" fill="#b7363a"></path><path d="M0 118L22.8 114.2C45.7 110.3 91.3 102.7 137 103C182.7 103.3 228.3 111.7 274 113C319.7 114.3 365.3 108.7 411.2 108.8C457 109 503 115 548.8 110.8C594.7 106.7 640.3 92.3 686 91.8C731.7 91.3 777.3 104.7 823 108.3C868.7 112 914.3 106 937.2 103L960 100L960 0L937.2 0C914.3 0 868.7 0 823 0C777.3 0 731.7 0 686 0C640.3 0 594.7 0 548.8 0C503 0 457 0 411.2 0C365.3 0 319.7 0 274 0C228.3 0 182.7 0 137 0C91.3 0 45.7 0 22.8 0L0 0Z" fill="#cf2f46"></path><path d="M0 71L22.8 69.5C45.7 68 91.3 65 137 64.7C182.7 64.3 228.3 66.7 274 73.2C319.7 79.7 365.3 90.3 411.2 91.2C457 92 503 83 548.8 75.8C594.7 68.7 640.3 63.3 686 60C731.7 56.7 777.3 55.3 823 60.5C868.7 65.7 914.3 77.3 937.2 83.2L960 89L960 0L937.2 0C914.3 0 868.7 0 823 0C777.3 0 731.7 0 686 0C640.3 0 594.7 0 548.8 0C503 0 457 0 411.2 0C365.3 0 319.7 0 274 0C228.3 0 182.7 0 137 0C91.3 0 45.7 0 22.8 0L0 0Z" fill="#e72255"></path><path d="M0 65L22.8 60.2C45.7 55.3 91.3 45.7 137 42.7C182.7 39.7 228.3 43.3 274 43.2C319.7 43 365.3 39 411.2 36.8C457 34.7 503 34.3 548.8 37.7C594.7 41 640.3 48 686 50.5C731.7 53 777.3 51 823 45.7C868.7 40.3 914.3 31.7 937.2 27.3L960 23L960 0L937.2 0C914.3 0 868.7 0 823 0C777.3 0 731.7 0 686 0C640.3 0 594.7 0 548.8 0C503 0 457 0 411.2 0C365.3 0 319.7 0 274 0C228.3 0 182.7 0 137 0C91.3 0 45.7 0 22.8 0L0 0Z" fill="#ff0066"></path></svg>